<?xml version="1.0" encoding="utf-8"?>
<!-- Generator: Adobe Illustrator 16.0.0, SVG Export Plug-In . SVG Version: 6.00 Build 0)  -->
<!DOCTYPE svg PUBLIC "-//W3C//DTD SVG 1.1//EN" "http://www.w3.org/Graphics/SVG/1.1/DTD/svg11.dtd">
<svg version="1.1" id="Layer_1" xmlns="http://www.w3.org/2000/svg" xmlns:xlink="http://www.w3.org/1999/xlink" x="0px" y="0px"
	 width="100px" height="100px" viewBox="0 0 100 100" enable-background="new 0 0 100 100" xml:space="preserve">
<path d="M96,22.601L84.278,12.379L72.556,2.157L60.834,12.379L49.112,22.601h12.828c-4.32,26.531-28.833,47.17-56.729,42.781
	c-1.227-0.192-1.724,1.46-0.518,1.879c34.716,12.082,74.711-7.77,80.496-44.66H96z"/>
<path d="M70,56.879c-3.604,3.332-7.635,6.235-12,8.663V98.5h12V56.879z"/>
<path d="M40,98.5h12V68.481c-3.813,1.626-7.827,2.907-12,3.802V98.5z"/>
<path d="M76,98.5h12V25.601h-0.303C85.814,34.905,81.727,43.326,76,50.439V98.5z"/>
<path d="M16,73.083c-4.075-0.595-8.088-1.552-12-2.894V98.5h12V73.083z"/>
<path d="M22,98.5h12V73.292c-2.729,0.331-5.51,0.505-8.335,0.505c-1.226,0-2.447-0.046-3.665-0.112V98.5z"/>
</svg>
